# Blender v2.93.4 OBJ File: 'rmp.blend'
# www.blender.org
mtllib rmp.mtl
o Cube
v 1.000000 0.235196 -1.313476
v 1.000000 0.013476 -1.535196
v 1.000000 -1.424336 1.981115
v 1.000000 -1.424336 1.267556
v -1.000000 0.235196 -1.313476
v -1.000000 0.013476 -1.535196
v -1.000000 -1.424336 1.981115
v -1.000000 -1.424336 1.267556
vt 0.895190 0.875000
vt 0.935569 0.875000
vt 0.935569 0.915380
vt 0.895190 0.915380
vt 0.854810 0.915380
vt 0.895190 0.955759
vt 0.854810 0.955759
vt 0.854810 0.794241
vt 0.895190 0.794241
vt 0.895190 0.834620
vt 0.854810 0.834620
vt 0.814431 0.875000
vt 0.854810 0.875000
vt 0.814431 0.915380
vn 0.0000 0.8931 0.4499
vn 0.0000 -1.0000 -0.0000
vn -1.0000 0.0000 0.0000
vn 0.0000 -0.8898 -0.4564
vn 1.0000 0.0000 0.0000
vn 0.0000 0.7071 -0.7071
usemtl Material
s off
f 1/1/1 5/2/1 7/3/1 3/4/1
f 4/5/2 3/4/2 7/6/2 8/7/2
f 8/8/3 7/9/3 5/10/3 6/11/3
f 6/12/4 2/13/4 4/5/4 8/14/4
f 2/13/5 1/1/5 3/4/5 4/5/5
f 6/11/6 5/10/6 1/1/6 2/13/6
o Cube.002
v 0.318830 -1.435482 -0.726214
v 0.318830 -1.294256 -0.726214
v 0.318830 -1.435482 -1.254418
v 0.318830 -1.294256 -1.254418
v 0.876040 -1.435482 -0.726214
v 0.876040 -1.294256 -0.726214
v 0.876040 -1.435482 -1.254418
v 0.876040 -1.294256 -1.254418
v 0.408920 -1.432937 -0.783571
v 0.408920 -0.249679 -0.842056
v 0.408920 -1.432937 -1.182931
v 0.408920 0.032711 -1.124446
v 0.784589 -1.432937 -0.783571
v 0.784589 -0.249679 -0.842056
v 0.784589 -1.432937 -1.182931
v 0.784589 0.032711 -1.124446
v -0.791080 -1.432937 -0.783571
v -0.791080 -0.249679 -0.842056
v -0.791080 -1.432937 -1.182931
v -0.791080 0.032711 -1.124446
v -0.415411 -1.432937 -0.783571
v -0.415411 -0.249679 -0.842056
v -0.415411 -1.432937 -1.182931
v -0.415411 0.032711 -1.124446
v -0.881170 -1.435482 -0.726214
v -0.881170 -1.294256 -0.726214
v -0.881170 -1.435482 -1.254418
v -0.881170 -1.294256 -1.254418
v -0.323960 -1.435482 -0.726214
v -0.323960 -1.294256 -0.726214
v -0.323960 -1.435482 -1.254418
v -0.323960 -1.294256 -1.254418
vt 0.149257 0.597029
vt 0.225743 0.597029
vt 0.225743 0.673514
vt 0.149257 0.673514
vt 0.225743 0.750000
vt 0.149257 0.750000
vt 0.225743 0.826486
vt 0.149257 0.826486
vt 0.225743 0.902971
vt 0.149257 0.902971
vt 0.072772 0.750000
vt 0.072772 0.826486
vt 0.302228 0.750000
vt 0.302228 0.826486
vt 0.149257 0.597029
vt 0.225743 0.597029
vt 0.225743 0.673514
vt 0.149257 0.673514
vt 0.225743 0.750000
vt 0.149257 0.750000
vt 0.225743 0.826486
vt 0.149257 0.826486
vt 0.225743 0.902971
vt 0.149257 0.902971
vt 0.072772 0.750000
vt 0.072772 0.826486
vt 0.302228 0.750000
vt 0.302228 0.826486
vt 0.149257 0.597029
vt 0.225743 0.597029
vt 0.225743 0.673514
vt 0.149257 0.673514
vt 0.225743 0.750000
vt 0.149257 0.750000
vt 0.225743 0.826486
vt 0.149257 0.826486
vt 0.225743 0.902971
vt 0.149257 0.902971
vt 0.072772 0.750000
vt 0.072772 0.826486
vt 0.302228 0.750000
vt 0.302228 0.826486
vt 0.149257 0.597029
vt 0.225743 0.597029
vt 0.225743 0.673514
vt 0.149257 0.673514
vt 0.225743 0.750000
vt 0.149257 0.750000
vt 0.225743 0.826486
vt 0.149257 0.826486
vt 0.225743 0.902971
vt 0.149257 0.902971
vt 0.072772 0.750000
vt 0.072772 0.826486
vt 0.302228 0.750000
vt 0.302228 0.826486
vn -1.0000 0.0000 0.0000
vn 0.0000 0.0000 -1.0000
vn 1.0000 0.0000 0.0000
vn 0.0000 0.0000 1.0000
vn 0.0000 -1.0000 0.0000
vn 0.0000 1.0000 0.0000
vn 0.0000 0.0399 -0.9992
vn 0.0000 0.0494 0.9988
vn 0.0000 0.7071 0.7071
usemtl Material.001
s off
f 9/15/7 10/16/7 12/17/7 11/18/7
f 11/18/8 12/17/8 16/19/8 15/20/8
f 15/20/9 16/19/9 14/21/9 13/22/9
f 13/22/10 14/21/10 10/23/10 9/24/10
f 11/25/11 15/20/11 13/22/11 9/26/11
f 16/19/12 12/27/12 10/28/12 14/21/12
f 17/29/7 18/30/7 20/31/7 19/32/7
f 19/32/13 20/31/13 24/33/13 23/34/13
f 23/34/9 24/33/9 22/35/9 21/36/9
f 21/36/14 22/35/14 18/37/14 17/38/14
f 19/39/11 23/34/11 21/36/11 17/40/11
f 24/33/15 20/41/15 18/42/15 22/35/15
f 25/43/7 26/44/7 28/45/7 27/46/7
f 27/46/13 28/45/13 32/47/13 31/48/13
f 31/48/9 32/47/9 30/49/9 29/50/9
f 29/50/14 30/49/14 26/51/14 25/52/14
f 27/53/11 31/48/11 29/50/11 25/54/11
f 32/47/15 28/55/15 26/56/15 30/49/15
f 33/57/7 34/58/7 36/59/7 35/60/7
f 35/60/8 36/59/8 40/61/8 39/62/8
f 39/62/9 40/61/9 38/63/9 37/64/9
f 37/64/10 38/63/10 34/65/10 33/66/10
f 35/67/11 39/62/11 37/64/11 33/68/11
f 40/61/12 36/69/12 34/70/12 38/63/12
