# Blender v2.93.4 OBJ File: 'str.blend'
# www.blender.org
mtllib str.mtl
o Cube
v 0.338243 0.338243 -0.334328
v 0.338243 -0.334328 -0.334328
v 0.346177 0.346177 0.346177
v 0.338243 -0.334328 0.338243
v -0.334328 0.338243 -0.334328
v -0.334328 -0.334328 -0.334328
v -0.334328 0.338243 0.338243
v -0.334328 -0.334328 0.338243
v 0.000069 2.005865 0.000069
v 2.005865 0.000069 0.000069
v -2.000000 0.000000 0.000000
v 0.000000 -2.000000 0.000000
vt 0.766635 0.250000
vt 0.766635 0.170865
vt 0.766635 0.250000
vt 0.687500 0.329135
vt 0.766635 0.329135
vt 0.766635 0.408271
vt 0.687500 0.408271
vt 0.608365 0.250000
vt 0.608365 0.329135
vt 0.608365 0.250000
vt 0.687500 0.170865
vt 0.687500 0.250000
vt 0.687500 0.170865
vt 0.766635 0.329135
vt 0.766635 0.408271
vt 0.766635 0.091729
vt 0.766635 0.170865
vt 0.766635 0.329135
vt 0.687500 0.250000
vt 0.687500 0.329135
vt 0.766635 0.250000
vt 0.766635 0.091729
vt 0.766635 0.170865
vt 0.687500 0.408271
vt 0.687500 0.329135
vt 0.608365 0.329135
vt 0.687500 0.250000
vn 0.0000 0.1966 -0.9805
vn -0.0058 -0.0058 1.0000
vn -0.1968 -0.9804 0.0000
vn 0.0000 -0.1968 -0.9804
vn 0.2014 -0.0138 0.9794
vn 0.0000 0.0000 -1.0000
vn -0.0138 0.2014 0.9794
vn -0.9805 0.1966 0.0000
vn 0.9794 0.2014 -0.0138
vn 0.1966 0.0000 -0.9805
vn 0.1966 -0.9805 0.0000
vn 0.2014 0.9794 -0.0138
vn -0.1990 0.9800 0.0000
vn -0.1968 0.0000 -0.9804
vn -0.1990 0.0000 0.9800
vn 0.0000 -0.1990 0.9800
vn -0.9804 -0.1968 0.0000
vn 0.9800 -0.1990 0.0000
usemtl Material
s off
f 1/1/1 5/2/1 9/3/1
f 4/4/2 3/5/2 7/6/2 8/7/2
f 6/8/3 8/9/3 11/10/3
f 6/11/4 2/12/4 12/13/4
f 3/5/5 4/4/5 10/14/5
f 6/11/6 5/2/6 1/1/6 2/12/6
f 7/6/7 3/5/7 9/15/7
f 5/2/8 7/16/8 9/17/8
f 3/5/9 1/1/9 9/18/9
f 2/12/10 1/1/10 10/19/10
f 4/4/11 2/12/11 10/20/11
f 1/1/12 3/5/12 10/21/12
f 7/16/13 5/2/13 11/22/13
f 5/2/14 6/11/14 11/23/14
f 8/7/15 7/6/15 11/24/15
f 4/4/16 8/7/16 12/25/16
f 8/9/17 6/8/17 12/26/17
f 2/12/18 4/4/18 12/27/18
